<svg width="683" height="683" viewBox="0 0 683 683" fill="none" xmlns="http://www.w3.org/2000/svg">
<g clip-path="url(#clip0_23_2)">
<path d="M76.9525 2.19482C48.5365 9.74327 23.1708 30.3007 10.3274 56.64C-0.910538 79.2853 -0.268368 59.8521 0.213259 345.89L0.694886 604.303L4.86899 615.064C16.7491 645.579 38.1013 666.939 68.6043 678.824L79.3607 683H340.242H601.123L612.361 679.467C642.543 669.83 666.464 646.703 678.826 615.064L683 604.303V341.714V79.1247L678.826 68.3641C666.946 37.6886 645.754 16.4887 615.091 4.60394L604.334 0.428162L345.058 0.106995C122.868 -0.214216 84.498 0.106957 76.9525 2.19482ZM590.367 69.0066C600.642 71.5763 611.88 82.8186 614.448 93.0974C617.178 103.858 617.178 579.57 614.448 590.331C611.88 600.61 600.642 611.852 590.367 614.422C579.611 617.152 104.084 617.152 93.3278 614.422C83.0531 611.852 71.8152 600.61 69.2465 590.331C67.8016 584.71 67.32 520.949 67.32 341.232C67.32 69.0066 66.3567 88.4398 79.5212 77.0369C83.3742 73.5036 89.3143 69.8096 92.6857 69.0066C101.837 66.5975 580.735 66.5975 590.367 69.0066Z" fill="black"/>
<path d="M463.378 208.573C459.525 210.5 427.898 243.906 375.401 301.242C330.288 350.387 292.882 390.86 292.24 391.181C291.598 391.341 279.236 377.369 264.626 359.863C230.913 319.23 226.899 314.733 219.514 311.039C208.437 305.418 190.777 307.827 181.626 316.499C171.994 325.493 168.141 342.517 173.278 354.563C176.489 362.111 263.342 466.505 271.53 472.608C277.309 476.944 279.075 477.426 290.474 477.426C301.872 477.426 303.638 476.944 309.418 472.608C318.408 465.862 505.761 260.769 509.454 253.703C515.715 241.657 512.343 223.188 502.069 213.712C492.757 205.04 474.776 202.63 463.378 208.573Z" fill="black"/>
</g>
<defs>
<clipPath id="clip0_23_2">
<rect width="682.667" height="682.667" fill="white"/>
</clipPath>
</defs>
</svg>
