<svg width="512" height="512" viewBox="0 0 512 512" fill="none" xmlns="http://www.w3.org/2000/svg">
<g clip-path="url(#clip0_26_2)">
<path d="M255.225 0.00163653C256.253 0.00221545 257.282 0.00279438 258.341 0.00339085C283.975 0.0695243 308.045 3.62551 332.624 11.0463C333.958 11.4469 333.958 11.4469 335.319 11.8556C370.047 22.5487 401.925 41.6936 428.458 66.4026C429.939 67.6943 431.425 68.9809 432.916 70.2616C454.852 89.4175 471.308 114.319 484.893 139.856C485.426 140.848 485.426 140.848 485.969 141.859C497.969 164.557 505.117 190.238 509.384 215.439C509.521 216.185 509.657 216.931 509.798 217.7C511.617 227.754 511.78 237.849 511.913 248.041C511.941 249.343 511.969 250.645 511.997 251.986C512.019 263.776 512.019 263.776 507.254 268.666C501.881 273.058 498.091 273.531 491.446 273.436C490.51 273.44 489.574 273.444 488.61 273.447C485.48 273.454 482.352 273.431 479.222 273.408C476.976 273.407 474.73 273.407 472.484 273.41C466.391 273.411 460.297 273.386 454.204 273.356C447.834 273.33 441.465 273.327 435.095 273.322C423.035 273.309 410.975 273.274 398.915 273.231C385.185 273.183 371.454 273.16 357.724 273.139C329.48 273.094 301.237 273.019 272.994 272.924C272.998 274.093 273.002 275.261 273.006 276.464C273.1 304.877 273.17 333.29 273.214 361.703C273.236 375.443 273.266 389.183 273.315 402.923C273.358 414.898 273.385 426.872 273.395 438.847C273.4 445.189 273.413 451.53 273.444 457.872C273.473 463.84 273.482 469.807 273.476 475.775C273.477 477.966 273.485 480.157 273.502 482.349C273.523 485.339 273.518 488.329 273.506 491.32C273.518 492.188 273.531 493.056 273.544 493.95C273.485 499.547 272.393 502.657 268.735 507.124C262.899 512.689 256.446 512.034 248.836 511.915C247.52 511.902 246.205 511.889 244.85 511.876C185.495 510.632 126.747 485.697 83.4559 445.381C81.9742 444.089 80.4881 442.802 78.9969 441.522C72.0824 435.466 66.1256 428.998 60.3667 421.828C58.7787 419.857 57.169 417.904 55.5334 415.973C18.4059 371.981 -0.120626 313.649 0.000590969 256.624C0.00117004 255.595 0.00174912 254.567 0.00234574 253.508C0.0460291 236.584 1.03073 220.315 4.65918 203.729C4.88738 202.679 5.11557 201.629 5.35069 200.548C15.2122 156.749 35.7784 116.319 66.4187 83.4353C67.7108 81.9541 68.9977 80.4684 70.2787 78.9776C76.3358 72.0648 82.8061 66.1096 89.9779 60.3522C91.9489 58.7646 93.9027 57.1553 95.8344 55.5202C109.349 44.1204 124.276 35.2187 139.891 27.0145C140.584 26.6443 141.277 26.2741 141.991 25.8927C164.512 14.003 190.419 6.46241 215.494 2.52993C216.724 2.33558 217.954 2.14124 219.222 1.941C231.223 0.237376 243.116 -0.0240896 255.225 0.00163653ZM221.392 69.4341C214.233 79.4432 213.38 90.6773 214.429 102.597C216.767 114.062 223.774 122.966 233.142 129.735C243.765 136.336 255.714 137.432 267.832 134.895C279.742 131.038 288.756 122.623 294.631 111.692C298.945 101.634 299.189 89.6357 295.821 79.2437C290.94 67.801 282.372 59.2311 270.985 54.439C252.272 47.6958 233.771 54.7132 221.392 69.4341ZM109.744 113.442C101.477 123.329 98.3076 134.601 99.4282 147.308C101.93 159.993 108.004 169.653 118.595 177.115C128.612 183.233 139.289 185.106 150.835 182.808C162.717 179.578 171.971 172.834 178.42 162.278C184.208 151.427 185.113 140.415 181.885 128.545C178.175 117.536 170.431 108.855 160.189 103.396C142.539 95.2826 123.138 99.3979 109.744 113.442ZM337.615 114.773C329.98 124.246 327.124 135.27 328.364 147.308C330.891 159.997 336.928 169.645 347.531 177.115C357.548 183.233 368.225 185.106 379.771 182.808C387.789 180.629 393.703 177.527 399.707 171.793C400.307 171.223 400.907 170.654 401.525 170.067C409.74 161.397 412.866 150.363 412.71 138.684C411.892 127.452 406.535 117.43 398.443 109.716C379.29 93.7108 354.102 96.8146 337.615 114.773ZM59.539 231.245C52.38 241.254 51.5273 252.488 52.5761 264.408C54.9147 275.873 61.9215 284.777 71.2895 291.546C81.912 298.147 93.8613 299.243 105.979 296.706C117.889 292.849 126.903 284.433 132.779 273.502C137.108 263.407 137.343 251.397 133.902 240.988C129.028 229.608 120.54 220.946 109.095 216.212C90.3108 209.647 71.9747 216.456 59.539 231.245ZM108.679 343.65C100.973 353.211 98.3596 364.062 99.4282 376.185C101.659 388.534 108.349 398.801 118.595 405.992C129.455 411.98 140.527 414.455 152.736 411.182C164.484 407.162 173.786 399.936 179.689 388.893C184.882 377.223 184.775 365.999 180.704 353.917C176.014 343.037 166.766 334.786 155.864 330.41C138.282 324.045 120.912 330.325 108.679 343.65Z" fill="black"/>
</g>
<defs>
<clipPath id="clip0_26_2">
<rect width="512" height="512" fill="white"/>
</clipPath>
</defs>
</svg>
