<svg width="800" height="800" viewBox="0 0 800 800" fill="none" xmlns="http://www.w3.org/2000/svg">
<g clip-path="url(#clip0_6_2)">
<path fill-rule="evenodd" clip-rule="evenodd" d="M393.477 799.948L400 800C397.713 800 395.43 799.981 393.152 799.943C391.069 799.908 388.989 799.857 386.914 799.79C386.787 799.786 386.659 799.782 386.532 799.778C384.446 799.709 382.366 799.624 380.289 799.523C380.232 799.52 380.174 799.517 380.116 799.514C377.999 799.411 375.887 799.291 373.779 799.154C373.697 799.149 373.613 799.143 373.529 799.138C371.463 799.003 369.402 798.852 367.345 798.686C367.207 798.675 367.069 798.664 366.931 798.653C364.896 798.486 362.865 798.304 360.839 798.107C360.735 798.097 360.632 798.087 360.529 798.077C358.498 797.878 356.471 797.664 354.448 797.435C354.303 797.418 354.158 797.402 354.013 797.385C352.059 797.162 350.11 796.924 348.165 796.672C347.918 796.64 347.672 796.608 347.426 796.576C345.595 796.335 343.768 796.083 341.945 795.818C341.609 795.769 341.275 795.72 340.942 795.671C339.125 795.402 337.312 795.12 335.502 794.827C335.235 794.784 334.969 794.74 334.703 794.697C332.828 794.389 330.957 794.068 329.09 793.734C328.895 793.699 328.699 793.664 328.502 793.628C326.639 793.292 324.782 792.943 322.929 792.582C322.662 792.53 322.396 792.477 322.13 792.425C320.318 792.067 318.509 791.697 316.705 791.315C316.431 791.257 316.158 791.199 315.886 791.141C314.08 790.754 312.277 790.355 310.479 789.944C310.234 789.888 309.99 789.832 309.746 789.776C307.907 789.352 306.074 788.915 304.245 788.466C304.028 788.413 303.811 788.359 303.593 788.305C301.772 787.855 299.957 787.392 298.147 786.917C297.922 786.858 297.697 786.798 297.473 786.739C295.656 786.258 293.844 785.766 292.036 785.26C291.835 785.204 291.633 785.147 291.432 785.091C289.559 784.564 287.692 784.023 285.831 783.47C285.703 783.432 285.576 783.394 285.448 783.356C283.565 782.794 281.687 782.219 279.815 781.63C279.685 781.589 279.555 781.548 279.424 781.507C275.495 780.266 271.593 778.967 267.718 777.609C267.689 777.599 267.659 777.589 267.629 777.578L267.565 777.555C261.728 775.508 255.953 773.329 250.244 771.023C250.068 770.952 249.894 770.881 249.719 770.81C247.93 770.085 246.148 769.346 244.371 768.595C244.297 768.564 244.222 768.532 244.148 768.501C242.34 767.735 240.54 766.957 238.746 766.166C238.593 766.098 238.439 766.03 238.285 765.962C236.534 765.187 234.789 764.4 233.052 763.601C232.926 763.543 232.801 763.486 232.676 763.428C230.959 762.636 229.248 761.832 227.544 761.017C227.331 760.915 227.117 760.812 226.903 760.709C225.258 759.919 223.62 759.117 221.988 758.305C221.767 758.195 221.546 758.085 221.325 757.974C219.688 757.155 218.055 756.325 216.43 755.484C216.244 755.388 216.06 755.292 215.876 755.196C214.265 754.36 212.66 753.512 211.062 752.654C210.799 752.513 210.536 752.371 210.272 752.229C208.674 751.367 207.083 750.493 205.498 749.61C205.348 749.526 205.199 749.443 205.049 749.359C203.403 748.438 201.763 747.506 200.13 746.562C199.974 746.472 199.819 746.382 199.663 746.292C198.092 745.381 196.528 744.46 194.97 743.528C194.706 743.37 194.442 743.212 194.179 743.054C192.668 742.145 191.163 741.227 189.665 740.299C189.457 740.17 189.249 740.041 189.041 739.912C187.484 738.943 185.933 737.964 184.39 736.975C184.2 736.853 184.01 736.731 183.819 736.608C182.282 735.619 180.753 734.619 179.23 733.61C179.06 733.497 178.889 733.384 178.719 733.27C177.184 732.249 175.656 731.217 174.136 730.176C173.964 730.058 173.793 729.94 173.621 729.822C172.051 728.742 170.489 727.652 168.936 726.551C168.84 726.483 168.745 726.415 168.649 726.347C157.013 718.083 145.837 709.212 135.169 699.78C135.043 699.669 134.918 699.558 134.793 699.447C131.873 696.86 128.991 694.23 126.149 691.558C125.994 691.413 125.84 691.268 125.686 691.123C124.498 690.003 123.315 688.875 122.14 687.74C46.8305 614.999 0 512.968 0 400C0 179.086 179.086 0 400 0C506.087 0 607.828 42.1427 682.843 117.157C757.857 192.172 800 293.913 800 400C800 512.972 753.166 615.005 677.855 687.744C677.852 687.749 677.853 687.758 677.854 687.767C658.949 706.013 638.257 722.414 616.068 736.681C615.964 736.747 615.861 736.813 615.758 736.879C614.191 737.886 612.615 738.881 611.033 739.866C610.833 739.99 610.634 740.114 610.434 740.237C608.895 741.192 607.348 742.136 605.794 743.07C605.598 743.188 605.401 743.306 605.204 743.424C603.634 744.364 602.058 745.293 600.476 746.211C600.294 746.317 600.112 746.422 599.93 746.528C596.497 748.512 593.033 750.446 589.538 752.33C589.3 752.46 589.06 752.589 588.82 752.717C587.245 753.561 585.665 754.395 584.078 755.219C583.854 755.337 583.632 755.452 583.409 755.567C581.867 756.363 580.319 757.15 578.765 757.927C578.417 758.103 578.067 758.277 577.717 758.451C576.233 759.187 574.744 759.915 573.25 760.634C572.917 760.796 572.583 760.957 572.248 761.116C570.721 761.845 569.19 762.564 567.654 763.274C567.326 763.427 566.999 763.578 566.671 763.729C565.094 764.451 563.511 765.165 561.923 765.869C561.656 765.988 561.389 766.107 561.121 766.225C559.466 766.952 557.806 767.67 556.141 768.377C555.905 768.479 555.669 768.578 555.433 768.678C553.701 769.408 551.963 770.127 550.218 770.834C549.932 770.952 549.646 771.067 549.359 771.183C547.743 771.832 546.123 772.472 544.498 773.102C544.167 773.232 543.834 773.36 543.502 773.488C541.874 774.113 540.241 774.728 538.604 775.333C538.342 775.431 538.081 775.527 537.82 775.623C536.187 776.221 534.549 776.81 532.906 777.389C532.547 777.517 532.186 777.643 531.825 777.769C530.184 778.34 528.539 778.902 526.89 779.453C526.602 779.551 526.314 779.647 526.025 779.743C524.318 780.308 522.606 780.863 520.888 781.407C520.648 781.484 520.409 781.559 520.169 781.635C518.342 782.208 516.509 782.771 514.67 783.32C514.552 783.356 514.435 783.391 514.317 783.426C512.44 783.984 510.557 784.529 508.669 785.061C508.415 785.134 508.161 785.205 507.907 785.276C506.111 785.777 504.309 786.267 502.503 786.745C502.268 786.808 502.032 786.87 501.797 786.931C500.012 787.399 498.222 787.855 496.428 788.299C496.204 788.355 495.978 788.411 495.753 788.467C493.934 788.913 492.112 789.347 490.286 789.768C490.028 789.828 489.77 789.887 489.512 789.946C487.768 790.344 486.021 790.731 484.27 791.107C483.932 791.18 483.594 791.252 483.255 791.324C481.511 791.692 479.763 792.05 478.011 792.397C477.73 792.453 477.449 792.508 477.167 792.563C473.176 793.343 469.164 794.063 465.132 794.724C464.973 794.75 464.815 794.776 464.656 794.802C462.68 795.122 460.7 795.429 458.715 795.721C458.533 795.748 458.352 795.774 458.171 795.801C456.232 796.083 454.289 796.352 452.341 796.606C452.173 796.628 452.004 796.65 451.835 796.672C449.897 796.923 447.955 797.16 446.009 797.383C445.814 797.405 445.619 797.427 445.425 797.449C443.48 797.669 441.53 797.875 439.577 798.067C439.39 798.085 439.204 798.103 439.018 798.121C437.062 798.311 435.102 798.486 433.138 798.647C432.939 798.663 432.739 798.68 432.539 798.696C430.517 798.858 428.491 799.006 426.461 799.139C426.375 799.144 426.291 799.15 426.207 799.155C424.084 799.293 421.956 799.413 419.823 799.517C419.796 799.519 419.769 799.52 419.741 799.521C417.643 799.623 415.542 799.709 413.436 799.779L413.356 799.781C408.922 799.927 404.469 800 400 800C397.822 800 395.647 799.983 393.477 799.948ZM440 560H360C296.282 560 240.554 597.494 214.936 652.318L212.04 658.96L214.547 660.813C260.14 693.29 314.61 714.111 373.61 718.927C373.692 718.934 373.773 718.941 373.853 718.947L373.61 718.927C375.371 719.071 377.136 719.201 378.905 719.316L373.853 718.947C375.573 719.086 377.296 719.211 379.021 719.323L378.905 719.316C380.615 719.427 382.328 719.525 384.045 719.609L379.021 719.323C380.804 719.439 382.591 719.539 384.38 719.625L384.045 719.609C385.329 719.672 386.615 719.728 387.903 719.776L400 720L405.015 719.961C405.172 719.959 405.329 719.957 405.485 719.954C407.175 719.926 408.862 719.884 410.546 719.829L405.485 719.954C407.19 719.925 408.892 719.883 410.592 719.828L410.546 719.829C412.261 719.774 413.972 719.705 415.68 719.623L410.592 719.828C412.357 719.77 414.119 719.699 415.879 719.613L415.68 719.623C417.459 719.537 419.235 719.436 421.006 719.322L415.879 719.613C417.612 719.528 419.343 719.429 421.071 719.317L421.006 719.322C422.739 719.209 424.468 719.083 426.193 718.943L421.071 719.317C422.835 719.203 424.596 719.074 426.353 718.93L426.193 718.943C427.868 718.808 429.54 718.659 431.208 718.498L426.353 718.93C428.103 718.788 429.849 718.631 431.592 718.46L431.208 718.498C488.238 712.978 540.888 692.489 585.18 661.007L587.92 658.96L585.065 652.326C560.569 599.885 508.514 563.294 448.265 560.211L440 560ZM400 80C223.269 80 80 223.269 80 400C80 476.319 106.717 546.398 151.309 601.394C192.612 528.884 270.597 480 360 480H440C529.406 480 607.394 528.888 648.69 601.389C693.282 546.4 720 476.32 720 400C720 223.269 576.731 80 400 80ZM400 120C488.366 120 560 191.634 560 280C560 365.688 492.641 435.643 407.986 439.804L400 440C311.634 440 240 368.366 240 280C240 194.312 307.359 124.357 392.014 120.196L400 120ZM400 200C355.817 200 320 235.817 320 280C320 324.183 355.817 360 400 360C444.183 360 480 324.183 480 280C480 235.817 444.183 200 400 200Z" fill="black"/>
</g>
<defs>
<clipPath id="clip0_6_2">
<rect width="800" height="800" fill="white"/>
</clipPath>
</defs>
</svg>
