<svg width="299" height="342" viewBox="0 0 299 342" fill="none" xmlns="http://www.w3.org/2000/svg">
<path d="M99.8333 1.55814C87.4333 6.09148 81.0333 15.1581 79.5667 30.6248L78.6333 39.6915H47.4333C12.5 39.6915 9.7 40.2248 3.7 47.9581C-1.23333 54.4915 -1.23333 64.8915 3.7 71.4248C10.3667 80.0915 2.76667 79.6915 149.833 79.6915C274.5 79.6915 283.833 79.5581 288.233 77.2915C302.5 70.2248 302.5 49.1581 288.233 42.0915C284.233 39.9581 279.3 39.6915 251.433 39.6915H219.3L219.7 36.2248C220.367 29.4248 217.7 17.9581 213.967 12.7581C212.1 9.82481 207.7 5.95814 204.367 3.95814L198.233 0.358142L151.567 0.0914753C114.9 -0.175191 103.833 0.0914753 99.8333 1.55814ZM195.967 22.3581C197.567 23.9581 198.9 26.0915 199.033 27.4248C199.033 28.6248 199.3 31.9581 199.7 34.6248L200.367 39.6915H150.233H100.233V32.3581C100.233 26.6248 100.9 24.6248 103.167 22.3581C105.967 19.8248 107.7 19.6915 149.567 19.6915C191.433 19.6915 193.167 19.8248 195.967 22.3581Z" fill="black"/>
<path d="M20.2334 99.9581C20.2334 100.225 24.3667 149.558 29.4334 209.691C37.4334 306.091 38.9001 319.691 41.3001 324.358C44.7667 331.158 48.7667 334.891 56.2334 338.225C62.1001 340.891 64.5001 341.025 149.567 341.025H236.9L243.7 337.825C250.1 334.758 255.033 329.825 258.9 322.491C259.967 320.358 263.833 280.625 269.033 217.158C273.567 161.025 277.833 111.558 278.233 107.291L279.033 99.6914H149.567C78.5001 99.6914 20.2334 99.8248 20.2334 99.9581ZM94.2334 121.291C96.3667 122.225 97.9667 124.491 98.9001 127.558C99.5667 130.225 102.233 168.491 104.9 212.758C109.3 286.625 109.567 293.558 107.7 296.491C103.567 302.625 93.7001 301.958 90.9001 295.425C89.7001 292.491 80.2334 148.758 80.2334 132.758C80.2334 126.225 80.6334 124.891 83.7001 122.491C87.8334 119.291 89.4334 119.025 94.2334 121.291ZM155.967 122.758L158.9 125.825V209.825C158.9 256.091 158.633 294.891 158.233 295.958C157.3 298.358 151.967 301.025 148.233 301.025C146.767 301.025 144.5 299.691 142.9 298.091C140.233 295.291 140.233 293.825 140.233 210.358C140.233 126.891 140.233 125.425 142.9 122.625C146.5 118.758 152.367 118.891 155.967 122.758ZM213.967 121.158C220.233 124.491 220.1 119.825 214.1 217.025C210.5 275.158 208.9 294.358 207.433 296.625C203.567 302.625 193.7 301.825 190.9 295.425C189.833 293.291 190.9 268.225 194.633 209.158L199.7 125.958L203.433 122.891C207.433 119.291 209.7 119.025 213.967 121.158Z" fill="black"/>
</svg>
