<svg width="800" height="800" viewBox="0 0 800 800" fill="none" xmlns="http://www.w3.org/2000/svg">
<path d="M656.25 255.782C647.026 255.782 639.548 263.363 639.548 272.713V581.882C639.548 614.554 613.321 641.139 581.091 641.139H214.861C182.632 641.139 156.404 614.552 156.404 581.882V210.627C156.404 177.956 182.632 151.371 214.861 151.371H581.091C590.315 151.371 597.793 143.79 597.793 134.44C597.793 125.09 590.315 117.51 581.091 117.51H214.861C164.208 117.51 123 159.281 123 210.627V581.882C123 633.227 164.208 675 214.861 675H581.091C631.743 675 672.951 633.227 672.951 581.882V272.714C672.951 263.364 665.473 255.782 656.25 255.782Z" fill="black"/>
<path d="M784.872 31.0699C764.737 10.6591 731.978 10.6674 711.86 31.0699L425.777 321.083C425.394 321.472 421.08 326.018 419.962 328.565L380.345 418.791C377.532 425.195 378.901 432.694 383.794 437.649C386.99 440.888 391.263 442.607 395.611 442.607C397.902 442.607 400.209 442.127 402.395 441.142L491.401 400.981C493.905 399.851 498.397 395.476 498.782 395.088L784.872 105.084C794.626 95.1964 800 82.0528 800 68.073C800 54.0946 794.626 40.9481 784.872 31.0699ZM761.254 81.1348L475.164 371.148C475.116 371.198 475.088 371.256 475.042 371.297L428.55 392.277L449.247 345.149C449.288 345.099 449.344 345.073 449.393 345.025L735.477 55.0125C742.368 48.0254 754.379 48.0337 761.256 55.0194C764.7 58.4998 766.597 63.138 766.597 68.073C766.597 73.0079 764.697 77.6447 761.254 81.1348Z" fill="black"/>
</svg>
