<svg width="683" height="683" viewBox="0 0 683 683" fill="none" xmlns="http://www.w3.org/2000/svg">
<g clip-path="url(#clip0_23_16)">
<path d="M124.533 2.40017C112.4 10.1335 110.133 24.4002 119.467 33.8668C121.333 35.6002 131.733 42.1335 142.4 48.2668C159.733 58.0002 162.8 59.3335 168.667 59.3335C176.667 59.3335 182.533 55.7335 186 48.5335C188.8 42.5335 188.133 33.7335 184.267 28.4002C182.8 26.2668 172.8 19.6002 161.2 12.8002C138.133 -0.533167 132 -2.2665 124.533 2.40017Z" fill="black"/>
<path d="M320.667 1.33336C292.133 5.73336 263.333 20.5334 242.533 41.2C204.533 79.3334 191.733 135.333 209.467 186.133C211.733 192.667 215.333 201.2 217.467 204.933C219.6 208.8 221.333 212.267 221.333 212.667C221.333 213.067 193.067 213.333 158.667 213.333C98.4 213.333 95.7333 213.467 90.6667 216C82.6667 220.133 80 226.4 80 241.333V253.333H48C18.4 253.333 15.4667 253.6 10.6667 256C7.2 257.733 4.4 260.533 2.66667 264C0 269.2 0 271.467 0 454.667C0 637.867 0 640.133 2.66667 645.333C4.4 648.8 7.2 651.6 10.6667 653.333C15.7333 656 18.2667 656 141.6 656H267.333L274 660.8C283.867 667.867 297.067 674.133 310.267 678.267C320.667 681.333 324.133 681.733 341.333 681.733C358.533 681.733 362 681.333 372.4 678.267C385.6 674.133 398.8 667.867 408.667 660.8L415.333 656H541.067C664.4 656 666.933 656 672 653.333C675.467 651.6 678.267 648.8 680 645.333C682.667 640.133 682.667 637.867 682.667 454.667C682.667 271.467 682.667 269.2 680 264C678.267 260.533 675.467 257.733 672 256C667.2 253.6 664.267 253.333 634.667 253.333H602.667V241.333C602.667 226.4 600 220.133 592 216C586.933 213.467 584.267 213.333 524 213.333C489.6 213.333 461.333 213.067 461.333 212.667C461.333 212.267 463.067 208.8 465.2 204.933C467.333 201.2 470.933 192.667 473.2 186.133C491.067 135.2 478.133 79.0667 439.6 40.8C421.467 22.6667 400 10.5334 374.667 4.13336C361.733 0.80003 333.733 -0.666637 320.667 1.33336ZM360.933 42.1334C380.933 46.2667 397.6 55.3334 411.867 69.7334C431.867 90 440.4 110.933 440.533 139.333C440.667 168.267 433.067 187.333 412.267 209.867C397.467 225.733 393.067 235.467 391.2 256.267L390.4 266.667H341.333H292.4L290.933 253.2C289.067 235.467 284 224.533 270.667 210.133C254.933 192.933 247.467 179.2 243.467 159.733C229.2 90.5334 291.733 27.8667 360.933 42.1334ZM251.2 264.933C252.267 279.2 256.133 288 264.533 295.733L270.267 301.067L270.933 328.267C271.6 360.4 273.067 365.067 284.667 375.733C292.8 383.2 301.867 386.667 313.467 386.667H321.333V466.533V546.4L309.067 542.4C283.6 534.267 284.8 534.267 199.067 533.733L120 533.2V393.2V253.333H185.2H250.267L251.2 264.933ZM562.667 393.2V533.2L483.733 533.733C414.267 534.133 403.467 534.533 394.667 536.533C385.467 538.8 369.2 543.6 363.733 546C361.467 546.933 361.333 542.667 361.333 466.933V387.067L371.733 386.4C388.533 385.333 401.6 376.667 408.133 362C410.8 356 411.2 352.667 411.733 328.267L412.4 301.067L418.133 295.733C426.533 288 430.4 279.2 431.467 264.933L432.4 253.333H497.467H562.667V393.2ZM80 425.333C80 555.067 80 557.467 82.6667 562.667C84.4 566.133 87.2 568.933 90.6667 570.667C95.7333 573.2 98.4 573.333 179.6 573.333C270.133 573.333 277.2 573.733 297.2 580.667C302.533 582.4 313.733 587.6 322 592C331.2 596.8 338.8 600 341.333 600C343.867 600 351.733 596.667 361.733 591.467C378.8 582.4 394.267 577.067 410.267 574.8C416.267 573.867 451.067 573.333 503.333 573.333C584.267 573.333 586.933 573.2 592 570.667C595.467 568.933 598.267 566.133 600 562.667C602.667 557.467 602.667 555.067 602.667 425.333V293.333H622.667H642.667V454.667V616H523.333C390.133 616 402 615.2 388.8 625.6C374.133 637.2 360.4 642 341.333 642C322.267 642 308.533 637.2 293.867 625.6C280.667 615.2 292.533 616 159.333 616H40V454.667V293.333H60H80V425.333ZM370.667 326.667V346.667H341.333H312V326.667V306.667H341.333H370.667V326.667Z" fill="black"/>
<path d="M170.4 342.8C164.667 345.733 160 353.6 160 360C160 366.667 164.667 374.267 170.667 377.333C175.067 379.6 178.533 380 193.333 380C208.133 380 211.6 379.6 216 377.333C222 374.267 226.667 366.667 226.667 360C226.667 353.333 222 345.733 216 342.667C211.467 340.4 208.267 340 193.067 340C178 340.133 174.533 340.533 170.4 342.8Z" fill="black"/>
<path d="M170.4 422.8C164.667 425.733 160 433.6 160 440C160 446.667 164.667 454.267 170.667 457.333C175.6 459.867 178.4 460 220.667 460C262.933 460 265.733 459.867 270.667 457.333C276.667 454.267 281.333 446.667 281.333 440C281.333 433.333 276.667 425.733 270.667 422.667C265.733 420.133 262.933 420 220.4 420C178.133 420.133 175.067 420.267 170.4 422.8Z" fill="black"/>
<path d="M466.4 342.8C460.667 345.733 456 353.6 456 360C456 366.667 460.667 374.267 466.667 377.333C471.067 379.6 474.533 380 489.333 380C504.133 380 507.6 379.6 512 377.333C518 374.267 522.667 366.667 522.667 360C522.667 353.333 518 345.733 512 342.667C507.467 340.4 504.267 340 489.067 340C474 340.133 470.533 340.533 466.4 342.8Z" fill="black"/>
<path d="M411.733 422.8C406 425.733 401.333 433.6 401.333 440C401.333 446.667 406 454.267 412 457.333C416.933 459.867 419.733 460 462 460C504.267 460 507.067 459.867 512 457.333C518 454.267 522.667 446.667 522.667 440C522.667 433.333 518 425.733 512 422.667C507.067 420.133 504.267 420 461.733 420C419.467 420.133 416.4 420.267 411.733 422.8Z" fill="black"/>
<path d="M540.667 2.13349C523.733 10.8002 500.533 25.3335 498.4 28.4002C494.533 33.7335 493.867 42.5335 496.667 48.5335C500.133 55.7335 506 59.3335 514 59.3335C519.867 59.3335 522.933 58.1335 539.333 48.8002C559.867 37.2002 564.8 33.4668 567.467 27.0668C570 21.2002 569.867 17.8668 566.667 11.3335C562 1.60016 549.867 -2.66651 540.667 2.13349Z" fill="black"/>
<path d="M91.7334 122.8C86 125.733 81.3334 133.6 81.3334 140C81.3334 146.667 86 154.267 92 157.333C96.6667 159.733 99.8667 160 121.333 160C149.333 160 153.867 158.667 158.667 149.333C162 142.667 162 137.333 158.667 130.667C153.867 121.2 149.467 120 121.067 120C99.4667 120.133 96.1334 120.4 91.7334 122.8Z" fill="black"/>
<path d="M531.733 122.8C526 125.733 521.333 133.6 521.333 140C521.333 146.667 526 154.267 532 157.333C536.667 159.733 539.867 160 561.333 160C582.8 160 586 159.733 590.667 157.333C596.667 154.267 601.333 146.667 601.333 140C601.333 133.333 596.667 125.733 590.667 122.667C586 120.267 582.933 120 561.067 120C539.467 120.133 536.133 120.4 531.733 122.8Z" fill="black"/>
</g>
<defs>
<clipPath id="clip0_23_16">
<rect width="682.667" height="682.667" fill="white"/>
</clipPath>
</defs>
</svg>
