<svg width="683" height="696" viewBox="0 0 683 696" fill="none" xmlns="http://www.w3.org/2000/svg">
<g clip-path="url(#clip0_7_2)">
<path d="M27.9111 3.51347C18.0601 8.03078 8.70168 17.4 3.94038 27.6058L0 35.9712V348V660.029L3.94038 668.394C8.70168 678.6 18.0601 687.969 27.9111 692.487C35.2993 695.833 37.2695 696 341.5 696H647.701L655.91 691.985C665.925 687.133 675.119 677.596 679.552 667.558C682.836 660.029 683 658.188 683 348C683 37.8115 682.836 35.9712 679.552 28.4423C675.119 18.4039 665.925 8.86732 655.91 4.0154L647.701 1.04904e-05H341.5C37.2695 1.04904e-05 35.2993 0.167318 27.9111 3.51347ZM630.462 286.933C630.462 414.421 630.133 518.654 629.805 518.654C629.312 518.654 550.833 482.348 455.279 438.179C319.007 374.937 279.767 357.369 273.364 356.867C265.648 356.031 259.573 358.54 159.586 402.208C101.465 427.638 53.5236 448.385 53.1952 448.385C52.8668 448.385 52.5385 359.879 52.5385 251.798V55.2115H341.5H630.462V286.933ZM451.502 497.573L629.641 580.056L630.133 610.338L630.462 640.788H341.5H52.5385V575.037V509.452L160.571 462.271C219.841 436.338 269.588 415.09 270.901 415.09C272.215 415.09 353.485 452.065 451.502 497.573Z" fill="black"/>
<path d="M456.428 109.754C421.95 118.956 394.039 149.406 386.486 185.712C379.755 218.002 390.919 253.638 415.054 277.229C430.98 292.788 459.547 304.5 481.876 304.5C524.235 304.5 564.624 272.712 575.46 230.885C578.58 218.838 578.58 192.404 575.46 180.023C566.923 146.562 539.012 118.287 506.339 109.754C493.697 106.408 468.742 106.408 456.428 109.754ZM498.295 165.467C518.982 175.004 528.34 196.921 521.773 219.842C518.653 230.55 505.19 243.433 493.369 246.779C453.144 258.825 422.114 209.971 449.368 177.513C461.025 163.46 482.697 158.106 498.295 165.467Z" fill="black"/>
</g>
<defs>
<clipPath id="clip0_7_2">
<rect width="682.667" height="696" fill="white"/>
</clipPath>
</defs>
</svg>
