<svg width="683" height="683" viewBox="0 0 683 683" fill="none" xmlns="http://www.w3.org/2000/svg">
<g clip-path="url(#clip0_23_12)">
<path d="M93.5999 1.4669C70.6666 5.33357 50.9332 15.7336 33.3332 33.3336C15.3332 51.3336 5.33322 70.5336 1.46655 94.6669C-0.533447 106.667 -0.533447 576 1.46655 588C5.33322 612.134 15.3332 631.334 33.3332 649.334C51.3332 667.334 70.5332 677.334 94.6666 681.2C106.667 683.2 576 683.2 588 681.2C612.133 677.334 631.333 667.334 649.333 649.334C667.333 631.334 677.333 612.134 681.2 588C683.2 576 683.2 106.667 681.2 94.6669C677.333 70.5336 667.333 51.3336 649.333 33.3336C631.333 15.3336 612.133 5.33357 588 1.4669C577.2 -0.266431 104.133 -0.266431 93.5999 1.4669ZM592.4 67.2002C601.467 71.8669 612.4 82.9336 616.4 91.6002L619.333 98.0002L619.733 276C619.867 377.067 619.6 453.334 618.933 452.667C618.267 451.867 610.667 442.267 602 431.334C576.533 398.934 569.067 392.534 549.467 386.667C541.333 384.134 537.6 383.734 526.8 384.267C501.2 385.734 492.667 391.2 454.133 431.467C438 448.267 424.533 462.134 424.133 462.267C423.733 462.4 397.867 430.134 366.667 390.534C335.467 350.934 306.4 315.067 302 310.934C273.6 284.134 228.133 282.267 197.733 306.4C193.867 309.467 163.733 342.667 130.533 380.267C97.4666 417.867 68.5332 450.4 66.5332 452.667L62.6666 456.667L62.9332 277.334L63.3332 98.0002L67.0666 90.6669C73.4666 78.1336 85.5999 68.0002 98.6666 63.8669C100.533 63.3336 210.667 62.9336 343.333 63.0669L584.667 63.3336L592.4 67.2002ZM255.733 353.6C260.4 356.134 278.933 378.934 364.667 488C421.467 560.267 468 619.734 468 620.267C468 621.867 115.467 621.6 105.333 620C93.3332 618 84.2666 613.334 76.1332 604.667C65.4666 593.467 63.4666 587.867 62.9332 567.867L62.3999 551.2L143.333 459.2C187.867 408.667 227.333 364.134 231.2 360.267C240.667 350.4 246.667 348.8 255.733 353.6ZM535.867 448.934C538.133 451.067 558.267 475.734 580.667 504L621.467 555.334L620.8 568.4C619.6 588.134 613.733 600.267 600.533 610.534C591.2 617.6 582.8 620.134 564.8 620.934L548.667 621.6L506 567.6C482.533 537.867 463.2 513.067 463.067 512.4C462.533 510.534 527.2 445.2 529.6 445.334C530.933 445.334 533.733 446.934 535.867 448.934Z" fill="black"/>
<path d="M426.267 108.8C378.133 119.467 345.2 160.534 345.067 210C345.067 256.667 374 295.2 420 309.6C428.533 312.267 432.8 312.667 448.667 312.667C466.267 312.534 468.133 312.267 480 308.267C508.4 298.4 528 281.334 540.667 255.334C548.8 238.8 551.2 228.134 551.067 209.334C550.933 184.934 543.733 164.134 528.667 145.067C516.533 129.6 494.8 115.2 475.333 109.867C464 106.8 437.867 106.134 426.267 108.8ZM462.933 171.467C470.933 174.134 479.733 181.867 484.667 190.8C488.267 197.334 488.667 199.2 488.667 210C488.667 219.867 488.133 222.934 485.6 227.734C473.067 251.2 445.6 258.4 424.533 243.867C400.933 227.734 400.933 192.267 424.533 176.134C436 168.267 448.533 166.667 462.933 171.467Z" fill="black"/>
</g>
<defs>
<clipPath id="clip0_23_12">
<rect width="682.667" height="682.667" fill="white"/>
</clipPath>
</defs>
</svg>
