<svg width="402" height="466" viewBox="0 0 402 466" fill="none" xmlns="http://www.w3.org/2000/svg">
<path d="M344.571 225.484H315.857H114.857C114.857 222.477 114.857 220.975 114.857 217.968V112.742C114.857 75.1621 153.143 45.0976 201 45.0976C248.856 45.0976 287.142 75.1621 287.142 112.742V127.775V225.484C287.142 240.516 300.542 262.131 315.857 262.131C331.171 262.131 344.571 242.019 344.571 225.484V127.775V112.742C344.571 51.1097 279.486 0 201.001 0C122.514 0 57.4286 51.1097 57.4286 112.742V225.485C24.8852 225.485 0 245.026 0 270.581V420.903C0 446.458 24.8852 466 57.4286 466H344.571C377.115 466 402 446.458 402 420.903V270.581C402 246.529 377.115 225.484 344.571 225.484ZM210.571 344.239V383.323C210.571 387.832 206.743 390.839 201.001 390.839C195.258 390.839 191.43 387.832 191.43 383.323V344.239C179.944 341.233 172.287 332.213 172.287 323.194C172.287 311.168 185.687 300.645 201.002 300.645C216.316 300.645 229.716 311.168 229.716 323.194C229.714 333.716 222.057 341.233 210.571 344.239Z" fill="black"/>
</svg>
