<svg width="683" height="584" viewBox="0 0 683 584" fill="none" xmlns="http://www.w3.org/2000/svg">
<g clip-path="url(#clip0_18_2)">
<path d="M325.225 1.09948C278.269 4.77011 249.989 24.6187 235.315 64.316C227.578 85.5241 223.042 129.708 225.71 160.432C230.779 221.474 267.464 272.455 316.288 286.05C328.027 289.448 354.973 289.448 366.712 286.05C415.536 272.455 452.221 221.474 457.29 160.432C459.958 129.708 455.422 85.5241 447.685 64.316C433.545 25.9782 404.597 4.77011 362.177 1.64327C356.307 1.23542 348.837 0.691627 345.502 0.419728C342.167 0.147829 333.096 0.555677 325.225 1.09948Z" fill="black"/>
<path d="M163.413 29.649C124.594 33.3196 98.9816 54.3918 90.1773 90.0106C85.1082 110.947 83.1072 154.858 86.5755 171.58C94.3126 209.102 115.256 240.235 141.936 254.102C164.48 265.793 191.427 266.201 214.238 255.189L222.509 251.111L215.438 237.108C207.168 221.066 201.565 204.752 197.163 184.495C194.628 171.988 194.228 166.278 194.228 139.632C194.228 97.4878 198.363 71.2495 208.902 46.5067C211.436 40.5249 213.704 35.087 213.838 34.2713C214.638 30.7366 182.756 27.8816 163.413 29.649Z" fill="black"/>
<path d="M488.905 29.649C475.565 31.0085 468.762 32.6399 469.162 34.4072C469.296 35.087 471.563 40.5249 474.098 46.5067C484.636 71.2495 488.772 97.4878 488.772 139.632C488.772 166.278 488.372 171.988 485.837 184.495C481.435 204.752 475.832 221.066 467.561 237.108L460.491 251.111L468.762 255.189C491.573 266.201 518.52 265.793 541.064 254.102C567.744 240.235 588.687 209.102 596.424 171.58C598.559 161.52 598.559 125.629 596.424 109.723C590.688 67.9867 573.88 44.3315 542.932 34.4072C534.928 31.8242 504.913 27.4738 501.578 28.2895C501.178 28.4254 495.575 29.1052 488.905 29.649Z" fill="black"/>
<path d="M109.387 276.397C55.8939 288.905 30.0146 304.403 16.4079 331.865C6.80322 351.17 3.20147 371.698 1.06709 419.144L-0.533691 454.491L3.20147 459.521C10.8052 469.718 33.2161 483.992 52.0253 490.654C62.6972 494.46 88.4431 501.258 89.2435 500.578C89.5103 500.17 90.3106 488.343 90.9776 474.34C92.1782 444.431 93.9124 426.893 97.5142 407.589C107.386 355.248 130.197 322.076 171.95 298.965L181.689 293.527L173.284 292.575C155.142 290.672 141.002 285.37 131.664 276.941C129.13 274.766 126.195 272.863 125.261 272.999C124.194 272.999 117.124 274.494 109.387 276.397Z" fill="black"/>
<path d="M552.403 276.126C545.199 284.011 527.857 290.672 509.715 292.575L501.311 293.527L511.049 298.965C552.803 322.076 575.614 355.248 585.486 407.589C589.087 426.893 590.822 444.431 592.022 474.34C592.689 488.343 593.489 500.17 593.756 500.578C594.557 501.258 620.303 494.46 630.974 490.654C649.784 483.992 672.195 469.718 679.798 459.521L683.533 454.491L681.933 419.144C679.131 356.608 672.461 332.816 652.318 312.288C637.244 297.062 619.235 288.225 586.82 279.796C557.205 272.183 556.138 272.047 552.403 276.126Z" fill="black"/>
<path d="M260.127 303.995C173.685 322.756 141.135 349.266 128.596 411.531C124.194 433.827 122.86 449.325 121.793 490.654L120.992 526.952L129.53 535.653C168.482 575.214 255.591 595.199 371.248 590.713C457.957 587.45 525.99 566.649 554.804 534.429L561.607 526.816V506.016C561.607 460.745 557.472 419.144 550.802 396.033C539.997 359.055 518.119 335.807 479.167 320.309C464.893 314.735 425.141 303.723 412.601 301.956C405.931 301.14 405.398 301.276 399.928 306.17C392.458 312.56 377.918 319.765 366.178 322.62C353.772 325.611 329.227 325.611 316.821 322.62C305.215 319.765 290.542 312.696 283.205 306.306C276.935 300.732 275.868 300.596 260.127 303.995Z" fill="black"/>
</g>
<defs>
<clipPath id="clip0_18_2">
<rect width="683" height="584" fill="white"/>
</clipPath>
</defs>
</svg>
