<svg width="405" height="290" viewBox="0 0 405 290" fill="none" xmlns="http://www.w3.org/2000/svg">
<path d="M186 26H218L241 29L261 34L279 40L299 49L315 58L327 66L339 75L352 86L360 93L365 98L376 110L385 121L399 140L402 145L400 150L388 167L379 178L368 190L359 200L349 209L333 222L318 232L301 242L284 250L268 256L246 262L219 266H186L163 263L139 257L118 249L101 241L81 229L65 217L52 206L38 193L31 185L22 175L10 159L2 147L4 142L16 125L25 114L36 102L45 92L53 85L62 77L81 63L96 54L113 45L136 36L158 30L176 27L186 26ZM195 66L179 69L164 75L151 84L139 96L130 110L125 123L122 139V153L125 169L130 182L137 193L146 203L156 212L166 218L179 223L195 226H209L225 223L240 217L253 208L265 196L272 185L277 175L281 160L282 153V139L279 123L274 110L267 99L258 89L248 80L236 73L221 68L209 66H195Z" fill="white"/>
<path d="M194 98H210L223 102L236 111L243 120L248 130L250 138V154L246 167L240 176L235 182L225 189L214 193L210 194H194L181 190L172 184L166 179L159 169L155 159L154 154V138L158 125L165 115L170 110L178 104L186 100L194 98Z" fill="white"/>
</svg>
