<svg width="683" height="680" viewBox="0 0 683 680" fill="none" xmlns="http://www.w3.org/2000/svg">
<path d="M553.867 0.687877C549.867 1.35454 542.134 4.02121 536.8 6.55454C527.867 10.8212 523.867 14.1545 494.134 43.8879L461.2 76.4212L530.534 145.888L599.867 215.221L637.067 178.421C670.134 145.488 674.534 140.688 678.267 132.821C681.867 125.088 682.4 122.555 682.267 113.221C682.134 100.955 679.867 93.6212 673.334 84.6879C670.8 81.3545 653.6 63.4879 634.934 45.0879C600.534 10.8212 595.067 6.55454 580.534 2.15454C573.334 0.0212107 561.867 -0.645456 553.867 0.687877Z" fill="black"/>
<path d="M249.2 288.555L73.2002 464.555L142.534 533.888L211.867 603.221L387.867 427.221L563.867 251.221L494.534 181.888L425.2 112.555L249.2 288.555Z" fill="black"/>
<path d="M17.8667 584.021L0 664.688L2.53333 669.621C4.13333 672.555 7.2 675.488 10.2667 677.088L15.3333 679.488L94.2667 660.421C137.733 650.021 173.467 641.221 173.867 640.955C174.533 640.421 37.7333 503.221 36.5333 503.221C36.1333 503.221 27.7333 539.621 17.8667 584.021Z" fill="black"/>
</svg>
