<svg width="341" height="336" viewBox="0 0 341 336" fill="none" xmlns="http://www.w3.org/2000/svg">
<g clip-path="url(#clip0_22_11)">
<path d="M159.889 19.2285C152.156 21.9812 146.923 10.2243 143.589 17.0405C140.389 23.3323 140.389 23.4634 139.989 80.3518L139.723 137.371L81.3226 138.027C23.3226 138.682 23.0559 138.682 16.6559 141.828C0.922592 149.431 -4.6774 168.175 4.25593 183.118C8.78926 190.59 15.5893 195.308 24.9226 197.012C29.0559 197.799 55.0559 198.323 85.8559 198.323H139.723V251.279C139.723 281.559 140.256 307.119 141.056 311.183C142.789 320.358 147.589 327.043 155.189 331.5C170.389 340.282 189.456 334.777 197.189 319.309C200.389 313.018 200.389 312.756 201.056 255.605L201.723 198.192L255.056 198.323C286.789 198.323 311.323 197.799 315.723 197.012C325.189 195.177 331.989 190.721 336.656 182.987C339.723 177.875 340.389 175.122 340.389 168.044C340.389 160.835 326.323 162.874 322.989 157.5C320.456 153.437 326.989 152.491 322.989 150L302.989 146L260.256 138.289L201.189 137.896L200.789 79.8275L181.056 37.0956L180.056 35.1294C172.456 23.2012 172.556 14.6407 159.889 19.2285Z" fill="black"/>
<path d="M180.989 316.455C188.723 313.703 193.956 325.459 197.289 318.643C200.489 312.352 200.489 312.22 200.889 255.332L201.156 198.312L259.556 197.657C317.556 197.002 317.822 197.002 324.222 193.856C339.956 186.253 345.556 167.509 336.622 152.566C332.089 145.094 325.289 140.375 315.956 138.671C311.822 137.885 285.822 137.361 255.022 137.361H201.156V84.4045C201.156 54.1252 200.622 28.5647 199.822 24.5013C198.089 15.3257 193.289 8.64068 185.689 4.18398C170.489 -4.59833 151.422 0.906997 143.689 16.3744C140.489 22.6662 140.489 22.9283 139.822 80.0789L139.156 137.492L85.8226 137.361C54.0892 137.361 29.5559 137.885 25.1559 138.671C15.6893 140.507 8.88926 144.963 4.22259 152.697C1.15593 157.809 0.489258 160.562 0.489258 167.64C0.489258 174.849 14.5559 172.81 17.8893 178.184C20.4226 182.247 13.8893 183.193 17.8893 185.684L37.8893 189.684L80.6226 197.395L139.689 197.788L140.089 255.856L159.822 298.588L160.822 300.554C168.422 312.483 168.323 321.043 180.989 316.455Z" fill="black"/>
</g>
<defs>
<clipPath id="clip0_22_11">
<rect width="341" height="336" fill="white"/>
</clipPath>
</defs>
</svg>
