<svg width="683" height="680" viewBox="0 0 683 680" fill="none" xmlns="http://www.w3.org/2000/svg">
<path d="M120 92C104.536 92 92 104.536 92 120V234H140V140H246V92H120Z" fill="black"/>
<path d="M437 92V140H543V246H591V120C591 104.536 578.464 92 563 92H437Z" fill="black"/>
<path d="M92 437V560C92 575.464 104.536 588 120 588H246V540H140V437H92Z" fill="black"/>
<path d="M543 437V540H437V588H563C578.464 588 591 575.464 591 560V437H543Z" fill="black"/>
<path d="M277.95 193.033C270.798 189.328 262.169 189.699 255.358 194.003C248.547 198.306 244.543 205.959 244.907 214.006L255.187 441.324C255.578 449.954 261.067 457.54 269.27 460.618C277.473 463.696 286.721 461.661 292.869 455.429L344.963 402.608L398.857 509.815C405.545 523.116 421.742 528.473 435.038 521.786L463.617 507.416C476.917 500.731 482.275 484.534 475.589 471.235L422.02 364.67L494.598 356.634C502.977 355.706 510.031 350.103 512.812 342.145C515.594 334.187 513.617 325.342 507.747 319.315L277.95 193.033Z" fill="black"/>
</svg>
