<svg width="683" height="683" viewBox="0 0 683 683" fill="none" xmlns="http://www.w3.org/2000/svg">
<path d="M51.9084 79.8432C45.278 81.767 33.7134 91.6818 30.1669 98.4891C20.4527 116.691 28.3166 139.48 47.5909 149.395L53.9129 152.651H341.486H629.059L635.381 149.395C654.501 139.48 662.519 116.543 652.959 98.637C651.417 95.8254 647.408 90.9419 644.17 87.9823C632.451 77.1795 656.506 77.9194 340.869 78.0674C146.892 78.2154 55.4549 78.6593 51.9084 79.8432Z" fill="black"/>
<path d="M52.7749 230.672C36.4443 235.51 23.9653 254.276 26.2763 270.549C27.5088 278.906 34.2875 290.781 40.2959 295.18C52.0046 303.536 38.4471 303.097 261.528 303.097C418.055 303.097 468.125 302.657 473.055 301.337C481.529 298.992 494.316 286.823 496.781 278.759C502.019 261.899 496.318 244.893 482.607 236.096C478.601 233.457 472.747 230.672 469.666 229.792C465.968 228.912 395.1 228.326 262.145 228.472C87.7469 228.472 59.2455 228.766 52.7749 230.672Z" fill="black"/>
<path d="M47.4507 382.704C23.5545 393.972 18.6211 423.678 37.7381 441.824C51.1508 454.555 25.0962 453.531 341.605 453.531C658.115 453.531 632.06 454.555 645.473 441.824C663.357 424.849 659.965 396.606 638.535 384.021L630.981 379.631L343.147 379.192L55.4675 378.9L47.4507 382.704Z" fill="black"/>
<path d="M54.7072 530.555C30.9657 537.445 19.095 562.953 30.1949 583.623C33.8949 590.806 45.4573 600.188 52.8573 602.241C57.3281 603.56 111.132 604 263.756 604H468.642L476.35 600.482C490.688 594.031 498.55 582.01 498.704 566.471C498.704 550.492 488.375 536.565 472.65 531.434C466.638 529.528 441.046 529.235 262.214 529.382C150.136 529.382 56.8656 529.968 54.7072 530.555Z" fill="black"/>
</svg>
