<svg width="402" height="288" viewBox="0 0 402 288" fill="none" xmlns="http://www.w3.org/2000/svg">
<path d="M199.496 21.986C200.303 21.984 201.109 21.982 201.94 21.98C212.081 21.983 221.799 22.605 231.809 24.361C230.448 27.372 228.895 29.573 226.639 31.98C225.993 32.671 225.347 33.362 224.682 34.073C221.684 37.215 218.671 40.342 215.638 43.451C214.056 45.087 212.488 46.737 210.935 48.401C202.061 57.904 195.113 65.312 181.649 66.049C165.318 67.375 150.803 79.004 139.809 90.361C130.423 101.432 123.392 116.201 121.512 130.642C120.529 137.409 118.416 140.893 113.523 145.555C112.879 146.2 112.235 146.845 111.572 147.51C109.458 149.618 107.318 151.696 105.176 153.775C103.698 155.239 102.221 156.704 100.746 158.171C96.8729 162.013 92.9779 165.83 89.0769 169.643C85.0939 173.543 81.1339 177.467 77.1719 181.388C69.4069 189.068 61.6159 196.723 53.8089 204.361C49.9009 201.801 46.4749 199.282 43.1639 195.982C42.3269 195.149 41.4899 194.316 40.6269 193.457C39.7589 192.58 38.8909 191.702 37.9959 190.798C37.0989 189.895 36.2019 188.992 35.2779 188.062C29.3829 182.078 23.8959 176.048 18.8089 169.361C17.9159 168.243 17.0199 167.127 16.1209 166.013C13.2979 162.502 10.5319 158.951 7.80888 155.361C7.37988 154.796 6.95187 154.231 6.50987 153.649C5.31487 152.049 4.15487 150.424 2.99587 148.798C1.99687 147.404 1.99688 147.404 0.976876 145.982C-0.191124 143.361 -0.191129 143.361 0.347871 140.912C5.32587 132.219 11.5419 124.157 17.8089 116.361C18.4259 115.569 19.0439 114.778 19.6799 113.962C32.5879 97.712 47.3439 82.99 63.8089 70.361C64.3179 69.963 64.8269 69.566 65.3519 69.156C91.6189 48.723 122.337 33.797 154.809 26.361C155.67 26.163 156.532 25.966 157.419 25.762C171.419 22.715 185.224 21.99 199.496 21.986Z" fill="white"/>
<path d="M308.479 0C312.509 1.857 315.263 4.52706 318.339 7.66406C318.888 8.21605 319.438 8.76793 320.003 9.33691C321.75 11.0949 323.49 12.8601 325.229 14.625C326.414 15.821 327.602 17.0159 328.788 18.2109C331.691 21.1349 334.587 24.0661 337.479 27C335.902 30.8908 333.244 33.4767 330.288 36.3516C329.783 36.8516 329.278 37.3522 328.757 37.8672C327.148 39.4581 325.533 41.0421 323.917 42.625C322.298 44.216 320.68 45.8093 319.066 47.4043C318.063 48.3962 317.057 49.3843 316.048 50.3691C313.428 52.9291 313.427 52.929 311.479 56C312.218 56.272 312.958 56.5432 313.72 56.8232C316.341 57.9412 318.343 59.156 320.632 60.8359C321.785 61.6799 321.785 61.68 322.962 62.542C323.772 63.147 324.582 63.752 325.417 64.375C326.266 65.007 327.114 65.639 327.988 66.291C346.605 80.2859 364.415 96.3602 378.479 115C379.292 116.031 380.107 117.063 380.945 118.125C383.508 121.379 386.007 124.677 388.479 128C388.892 128.549 389.306 129.099 389.73 129.665C390.918 131.261 392.075 132.88 393.229 134.5C394.242 135.908 394.243 135.908 395.277 137.344C396.48 140 396.479 140 396.022 142.344C393.877 146.036 391.523 149.526 389.042 153C388.243 154.125 388.243 154.125 387.428 155.272C382.464 162.171 377.113 168.643 371.479 175C370.709 175.87 369.937 176.74 369.144 177.637C367.679 179.273 366.207 180.904 364.729 182.527C363.135 184.28 361.552 186.045 359.979 187.816C355.086 193.3 350.116 198.296 344.479 203C343.583 203.797 342.685 204.593 341.761 205.414C301.45 240.979 249.696 261.203 195.979 261.25C195.277 261.251 194.574 261.251 193.851 261.252C182.161 261.234 170.929 260.442 159.479 258C158.624 257.823 157.768 257.646 156.886 257.464C146.571 255.294 136.585 252.683 126.807 248.704C123.202 247.179 123.202 247.179 119.487 247.738C117.368 249.071 115.759 250.48 113.996 252.256C113.336 252.917 112.676 253.577 111.995 254.258C110.943 255.325 110.943 255.325 109.87 256.414C109.144 257.144 108.417 257.873 107.668 258.625C105.35 260.954 103.039 263.289 100.729 265.625C99.1586 267.206 97.5866 268.787 96.0146 270.367C92.1647 274.24 88.3194 278.118 84.4795 282C80.4487 280.143 77.697 277.473 74.6201 274.336C74.0712 273.784 73.522 273.232 72.9561 272.663C71.2091 270.905 69.4685 269.14 67.7295 267.375C66.5436 266.179 65.3578 264.984 64.1709 263.789C61.2689 260.865 58.3725 257.934 55.4795 255C56.9755 251.512 58.9696 249.261 61.6455 246.588C62.5235 245.706 63.4017 244.823 64.3066 243.914C65.2876 242.939 66.268 241.965 67.249 240.99C68.2869 239.952 69.3235 238.913 70.3594 237.874C73.2123 235.017 76.0717 232.166 78.9316 229.316C82.0136 226.242 85.09 223.163 88.167 220.085C93.5 214.751 98.8358 209.421 104.175 204.093C111.895 196.39 119.608 188.682 127.321 180.972C139.833 168.464 152.35 155.96 164.869 143.46C177.032 131.315 189.193 119.169 201.351 107.019C202.1 106.27 202.849 105.522 203.621 104.75C207.38 100.994 211.138 97.2392 214.896 93.4834C246.084 62.3155 277.28 31.1549 308.479 0ZM266.838 98.3965C264.057 100.951 261.294 103.523 258.564 106.132C257.449 107.202 256.333 108.269 255.213 109.333C251.076 113.124 247.052 116.77 243.838 121.396C243.526 124.198 243.932 125.733 244.967 128.334C246.062 130.628 246.062 130.628 246.174 134.318C246.329 149.507 242.596 160.644 232.4 172.146C231.53 172.911 230.684 173.654 229.838 174.396C228.715 175.421 227.565 176.419 226.4 177.396C216.238 184.729 204.122 187.041 191.838 185.396C189.34 184.61 186.905 183.873 184.341 183.334C180.448 183.43 180.448 183.43 175.209 188.921C174.488 189.741 173.788 190.537 173.088 191.333C168.18 196.555 163.469 201.928 158.838 207.396C171.275 214.412 183.75 218.728 198.15 218.771C219.854 218.091 240.279 210.916 255.588 195.096C271.508 178.019 279.574 158.074 279.077 134.728C278.218 122.724 275.926 107.085 266.838 98.3965Z" fill="white"/>
</svg>
