<svg width="800" height="800" viewBox="0 0 800 800" fill="none" xmlns="http://www.w3.org/2000/svg">
<rect x="172" y="172" width="501" height="456" fill="white"/>
<mask id="path-2-outside-1_3_2" maskUnits="userSpaceOnUse" x="1" y="1" width="797" height="799" fill="black">
<rect fill="white" x="1" y="1" width="797" height="799"/>
<path fill-rule="evenodd" clip-rule="evenodd" d="M777 400.5C777 609.538 607.986 779 399.5 779C191.012 779 22 609.538 22 400.5C22 191.46 191.012 22 399.5 22C607.986 22 777 191.46 777 400.5ZM479.137 264.951L535.098 321.113C573.075 359.225 592.059 378.282 587.631 398.823C583.199 419.368 558.061 428.838 507.782 447.778L472.973 460.89C459.507 465.962 452.777 468.498 447.578 473.009C445.306 474.985 443.267 477.222 441.512 479.675C437.507 485.273 435.597 492.233 431.776 506.151C423.09 537.805 418.749 553.63 408.405 559.546C404.049 562.04 399.115 563.35 394.098 563.342C382.195 563.323 370.629 551.715 347.499 528.501L329.651 510.591L268.545 571.957C257.498 583.051 239.571 583.066 228.505 571.991C217.44 560.912 217.425 542.937 228.473 531.843L289.607 470.447C289.599 470.454 289.615 470.439 289.607 470.447L272.759 453.49C249.773 430.42 238.281 418.888 238.206 407.022C238.173 401.893 239.502 396.847 242.055 392.4C247.959 382.124 263.63 377.79 294.969 369.126C308.874 365.284 315.826 363.362 321.414 359.331C323.922 357.518 326.201 355.413 328.205 353.055C332.675 347.798 335.159 341.004 340.123 327.412L352.732 292.913C371.357 241.938 380.674 216.451 401.218 211.906C421.757 207.362 440.885 226.558 479.137 264.951Z"/>
</mask>
<path fill-rule="evenodd" clip-rule="evenodd" d="M777 400.5C777 609.538 607.986 779 399.5 779C191.012 779 22 609.538 22 400.5C22 191.46 191.012 22 399.5 22C607.986 22 777 191.46 777 400.5ZM479.137 264.951L535.098 321.113C573.075 359.225 592.059 378.282 587.631 398.823C583.199 419.368 558.061 428.838 507.782 447.778L472.973 460.89C459.507 465.962 452.777 468.498 447.578 473.009C445.306 474.985 443.267 477.222 441.512 479.675C437.507 485.273 435.597 492.233 431.776 506.151C423.09 537.805 418.749 553.63 408.405 559.546C404.049 562.04 399.115 563.35 394.098 563.342C382.195 563.323 370.629 551.715 347.499 528.501L329.651 510.591L268.545 571.957C257.498 583.051 239.571 583.066 228.505 571.991C217.44 560.912 217.425 542.937 228.473 531.843L289.607 470.447C289.599 470.454 289.615 470.439 289.607 470.447L272.759 453.49C249.773 430.42 238.281 418.888 238.206 407.022C238.173 401.893 239.502 396.847 242.055 392.4C247.959 382.124 263.63 377.79 294.969 369.126C308.874 365.284 315.826 363.362 321.414 359.331C323.922 357.518 326.201 355.413 328.205 353.055C332.675 347.798 335.159 341.004 340.123 327.412L352.732 292.913C371.357 241.938 380.674 216.451 401.218 211.906C421.757 207.362 440.885 226.558 479.137 264.951Z" fill="#1C274C"/>
<path d="M479.137 264.951L464.261 279.773L464.262 279.773L479.137 264.951ZM535.098 321.113L520.222 335.935L520.222 335.935L535.098 321.113ZM587.631 398.823L608.159 403.251L608.159 403.249L587.631 398.823ZM507.782 447.778L515.184 467.431L515.185 467.43L507.782 447.778ZM472.973 460.89L465.571 441.238H465.571L472.973 460.89ZM447.578 473.009L433.813 457.15L433.807 457.156L433.8 457.161L447.578 473.009ZM441.512 479.675L424.435 467.453L424.433 467.455L441.512 479.675ZM431.776 506.151L411.525 500.592L411.525 500.593L431.776 506.151ZM408.405 559.546L397.979 541.317L397.971 541.322L408.405 559.546ZM394.098 563.342L394.065 584.342H394.066L394.098 563.342ZM347.499 528.501L362.376 513.679L362.375 513.678L347.499 528.501ZM329.651 510.591L344.526 495.767L329.646 480.834L314.77 495.773L329.651 510.591ZM268.545 571.957L283.426 586.775L283.426 586.774L268.545 571.957ZM228.505 571.991L213.647 586.831L213.65 586.834L228.505 571.991ZM228.473 531.843L243.353 546.661L243.354 546.661L228.473 531.843ZM272.759 453.49L287.656 438.689L287.646 438.678L287.635 438.668L272.759 453.49ZM238.206 407.022L259.206 406.889V406.889L238.206 407.022ZM242.055 392.4L223.846 381.938L223.841 381.946L242.055 392.4ZM294.969 369.126L289.376 348.885L289.374 348.885L294.969 369.126ZM321.414 359.331L333.699 376.362L333.709 376.355L333.719 376.348L321.414 359.331ZM328.205 353.055L312.206 339.453L312.205 339.454L328.205 353.055ZM340.123 327.412L320.399 320.203L320.397 320.207L340.123 327.412ZM352.732 292.913L372.456 300.121L372.456 300.12L352.732 292.913ZM401.218 211.906L405.753 232.411L405.754 232.411L401.218 211.906ZM777 400.5H756C756 597.992 596.335 758 399.5 758V779V800C619.636 800 798 621.084 798 400.5H777ZM399.5 779V758C202.663 758 43 597.992 43 400.5H22H1C1 621.083 179.362 800 399.5 800V779ZM22 400.5H43C43 203.006 202.663 43 399.5 43V22V1C179.362 1 1 179.915 1 400.5H22ZM399.5 22V43C596.335 43 756 203.006 756 400.5H777H798C798 179.914 619.636 1 399.5 1V22ZM479.137 264.951L464.262 279.773L520.222 335.935L535.098 321.113L549.974 306.29L494.013 250.128L479.137 264.951ZM535.098 321.113L520.222 335.935C539.702 355.484 552.583 368.491 560.378 379.038C567.949 389.283 567.428 392.888 567.102 394.398L587.631 398.823L608.159 403.249C612.262 384.218 604.462 368.023 594.154 354.076C584.07 340.431 568.471 324.853 549.974 306.29L535.098 321.113ZM587.631 398.823L567.103 394.395C566.779 395.895 565.785 399.377 554.688 405.553C543.252 411.917 526.173 418.41 500.379 428.127L507.782 447.778L515.185 467.43C539.671 458.207 560.3 450.495 575.111 442.253C590.26 433.822 604.05 422.296 608.159 403.251L587.631 398.823ZM507.782 447.778L500.38 428.126L465.571 441.238L472.973 460.89L480.375 480.542L515.184 467.431L507.782 447.778ZM472.973 460.89L465.571 441.238C453.576 445.755 442.521 449.592 433.813 457.15L447.578 473.009L461.343 488.869C463.032 487.403 465.439 486.168 480.375 480.542L472.973 460.89ZM447.578 473.009L433.8 457.161C430.298 460.206 427.151 463.658 424.435 467.453L441.512 479.675L458.589 491.897C459.384 490.786 460.313 489.764 461.357 488.857L447.578 473.009ZM441.512 479.675L424.433 467.455C417.734 476.819 414.928 488.194 411.525 500.592L431.776 506.151L452.027 511.71C456.265 496.272 457.28 493.727 458.591 491.894L441.512 479.675ZM431.776 506.151L411.525 500.593C407.044 516.924 404.132 527.412 401.217 534.695C398.281 542.026 396.872 541.95 397.979 541.317L408.405 559.546L418.831 577.775C430.282 571.226 436.215 560.279 440.208 550.305C444.22 540.283 447.823 527.032 452.028 511.708L431.776 506.151ZM408.405 559.546L397.971 541.322C396.797 541.994 395.471 542.344 394.13 542.342L394.098 563.342L394.066 584.342C402.759 584.355 411.301 582.086 418.84 577.77L408.405 559.546ZM394.098 563.342L394.131 542.342C395.433 542.344 394.267 543.125 388.113 538.21C381.999 533.327 374.309 525.656 362.376 513.679L347.499 528.501L332.623 543.323C343.819 554.56 353.478 564.3 361.904 571.029C370.291 577.727 380.861 584.321 394.065 584.342L394.098 563.342ZM347.499 528.501L362.375 513.678L344.526 495.767L329.651 510.591L314.776 525.414L332.624 543.324L347.499 528.501ZM329.651 510.591L314.77 495.773L253.664 557.139L268.545 571.957L283.426 586.774L344.532 525.408L329.651 510.591ZM268.545 571.957L253.665 557.139C250.816 560 246.214 560.004 243.361 557.148L228.505 571.991L213.65 586.834C232.928 606.128 264.18 606.101 283.426 586.775L268.545 571.957ZM228.505 571.991L243.363 557.15C240.477 554.26 240.475 549.551 243.353 546.661L228.473 531.843L213.593 517.025C194.375 536.323 194.403 567.564 213.647 586.831L228.505 571.991ZM228.473 531.843L243.354 546.661L304.488 485.264L289.607 470.447L274.726 455.629L213.592 517.026L228.473 531.843ZM289.607 470.447L275.104 455.259C275.09 455.272 275.067 455.294 275.039 455.321C275.019 455.341 274.961 455.397 274.887 455.469C274.852 455.503 274.777 455.578 274.682 455.673C274.634 455.721 274.554 455.803 274.456 455.905C274.406 455.958 274.337 456.029 274.257 456.115C274.181 456.196 274.064 456.323 273.924 456.48C273.852 456.561 273.76 456.665 273.656 456.788C273.554 456.907 273.414 457.073 273.251 457.274C273.183 457.359 273.039 457.543 272.962 457.642C272.872 457.759 272.68 458.017 272.577 458.158C272.454 458.33 272.187 458.717 272.044 458.933C271.867 459.208 271.477 459.847 271.268 460.213C270.999 460.71 270.411 461.928 270.105 462.653C269.703 463.745 268.956 466.624 268.703 468.418C268.625 471.388 270.279 478.666 272.486 482.613C275.919 486.378 283.703 490.603 287.443 491.337C289.812 491.448 293.628 491.06 295.057 490.729C295.986 490.456 297.528 489.897 298.146 489.633C298.594 489.427 299.37 489.04 299.699 488.864C299.955 488.721 300.412 488.455 300.613 488.332C300.777 488.23 301.076 488.039 301.211 487.95C301.324 487.874 301.534 487.731 301.63 487.665C301.859 487.505 302.047 487.367 302.179 487.268C302.316 487.165 302.432 487.076 302.522 487.006C302.613 486.935 302.691 486.873 302.755 486.821C302.881 486.721 302.983 486.636 303.054 486.577C303.127 486.516 303.189 486.464 303.236 486.423C303.328 486.345 303.402 486.281 303.448 486.24C303.497 486.197 303.538 486.161 303.567 486.135C303.625 486.083 303.672 486.041 303.699 486.016C303.755 485.966 303.798 485.926 303.82 485.906C303.866 485.863 303.905 485.828 303.93 485.804C303.956 485.78 303.995 485.744 304.042 485.699C304.063 485.679 304.109 485.636 304.165 485.581C304.194 485.554 304.243 485.507 304.304 485.447C304.335 485.416 304.379 485.373 304.432 485.32C304.48 485.272 304.563 485.189 304.664 485.085C304.716 485.031 304.788 484.958 304.871 484.869C304.95 484.786 305.074 484.653 305.223 484.487C305.3 484.402 305.398 484.292 305.511 484.161C305.621 484.034 305.774 483.853 305.953 483.631C306.028 483.538 306.189 483.333 306.275 483.222C306.375 483.09 306.593 482.796 306.71 482.633C306.851 482.434 307.159 481.977 307.326 481.719C307.534 481.385 307.995 480.592 308.242 480.13C308.565 479.482 309.262 477.844 309.61 476.845C310.047 475.271 310.602 471 310.502 468.323C309.649 464.166 304.895 456.046 300.867 452.717C297.127 450.836 290.469 449.462 287.837 449.52C286.242 449.716 283.66 450.305 282.667 450.625C281.997 450.873 280.861 451.354 280.392 451.575C280.043 451.75 279.431 452.076 279.166 452.226C278.956 452.347 278.578 452.575 278.409 452.681C278.27 452.769 278.015 452.935 277.899 453.013C277.8 453.08 277.617 453.206 277.532 453.265C277.33 453.407 277.162 453.53 277.042 453.62C276.917 453.713 276.812 453.794 276.729 453.858C276.645 453.923 276.573 453.981 276.513 454.029C276.396 454.122 276.3 454.2 276.233 454.255C276.164 454.313 276.105 454.362 276.06 454.4C275.973 454.474 275.902 454.535 275.858 454.573C275.77 454.649 275.701 454.71 275.668 454.74C275.598 454.802 275.543 454.851 275.523 454.87C275.496 454.894 275.474 454.914 275.46 454.927L289.607 470.447L303.753 485.967C303.741 485.978 303.72 485.998 303.693 486.021C303.673 486.039 303.619 486.088 303.55 486.15C303.516 486.18 303.448 486.24 303.36 486.316C303.316 486.355 303.245 486.416 303.158 486.489C303.113 486.527 303.054 486.577 302.985 486.634C302.918 486.689 302.822 486.768 302.705 486.861C302.646 486.908 302.573 486.966 302.489 487.031C302.407 487.095 302.301 487.176 302.177 487.269C302.056 487.359 301.889 487.482 301.686 487.624C301.602 487.684 301.418 487.81 301.32 487.876C301.204 487.954 300.948 488.12 300.809 488.209C300.641 488.314 300.262 488.542 300.053 488.664C299.787 488.813 299.175 489.139 298.826 489.314C298.357 489.536 297.222 490.016 296.551 490.264C295.559 490.584 292.976 491.173 291.381 491.37C288.749 491.427 282.092 490.053 278.352 488.172C274.323 484.844 269.57 476.723 268.717 472.566C268.617 469.889 269.171 465.618 269.608 464.045C269.956 463.045 270.653 461.407 270.976 460.759C271.223 460.297 271.684 459.504 271.892 459.17C272.059 458.913 272.368 458.456 272.508 458.256C272.625 458.093 272.843 457.799 272.944 457.667C273.03 457.556 273.191 457.351 273.266 457.258C273.444 457.037 273.598 456.856 273.707 456.729C273.82 456.598 273.919 456.487 273.995 456.402C274.144 456.236 274.268 456.104 274.347 456.02C274.431 455.932 274.502 455.858 274.554 455.804C274.655 455.7 274.738 455.617 274.786 455.569C274.839 455.517 274.883 455.473 274.914 455.443C274.975 455.383 275.024 455.336 275.052 455.309C275.109 455.254 275.154 455.212 275.175 455.192C275.221 455.148 275.259 455.112 275.283 455.09C275.308 455.067 275.345 455.032 275.391 454.99C275.412 454.97 275.456 454.931 275.51 454.881C275.538 454.856 275.584 454.815 275.642 454.763C275.672 454.737 275.713 454.7 275.762 454.657C275.808 454.617 275.881 454.553 275.973 454.474C276.02 454.434 276.082 454.382 276.155 454.321C276.226 454.262 276.328 454.177 276.454 454.077C276.518 454.025 276.596 453.963 276.687 453.892C276.777 453.822 276.893 453.733 277.03 453.63C277.162 453.531 277.35 453.393 277.579 453.233C277.675 453.167 277.885 453.024 277.998 452.948C278.133 452.859 278.432 452.668 278.596 452.566C278.797 452.443 279.254 452.177 279.51 452.034C279.839 451.858 280.615 451.471 281.062 451.265C281.681 451.001 283.223 450.442 284.152 450.169C285.581 449.838 289.397 449.45 291.766 449.561C295.506 450.295 303.29 454.52 306.723 458.285C308.93 462.232 310.583 469.51 310.506 472.479C310.253 474.274 309.506 477.153 309.104 478.245C308.798 478.97 308.21 480.188 307.941 480.685C307.732 481.051 307.342 481.69 307.165 481.965C307.022 482.181 306.755 482.568 306.632 482.74C306.529 482.881 306.337 483.139 306.247 483.256C306.17 483.355 306.026 483.539 305.958 483.624C305.795 483.825 305.655 483.991 305.553 484.11C305.449 484.233 305.357 484.337 305.285 484.418C305.145 484.575 305.028 484.702 304.952 484.783C304.872 484.869 304.803 484.94 304.753 484.993C304.655 485.095 304.575 485.176 304.527 485.224C304.432 485.32 304.357 485.394 304.323 485.428C304.249 485.5 304.192 485.556 304.172 485.575C304.144 485.601 304.122 485.622 304.11 485.635L289.607 470.447ZM289.607 470.447L304.504 455.646L287.656 438.689L272.759 453.49L257.862 468.291L274.71 485.248L289.607 470.447ZM272.759 453.49L287.635 438.668C275.776 426.765 268.18 419.096 263.338 412.997C258.472 406.868 259.198 405.665 259.206 406.889L238.206 407.022L217.206 407.154C217.289 420.244 223.798 430.741 230.444 439.111C237.113 447.513 246.756 457.145 257.883 468.312L272.759 453.49ZM238.206 407.022L259.206 406.889C259.197 405.474 259.563 404.082 260.268 402.854L242.055 392.4L223.841 381.946C219.441 389.613 217.15 398.312 217.206 407.155L238.206 407.022ZM242.055 392.4L260.263 402.863C259.639 403.948 259.575 402.554 266.816 399.639C274.021 396.739 284.394 393.837 300.565 389.367L294.969 369.126L289.374 348.885C274.205 353.079 261.073 356.676 251.132 360.678C241.226 364.665 230.375 370.576 223.846 381.938L242.055 392.4ZM294.969 369.126L300.562 389.368C312.947 385.946 324.334 383.117 333.699 376.362L321.414 359.331L309.129 342.299C307.317 343.606 304.8 344.623 289.376 348.885L294.969 369.126ZM321.414 359.331L333.719 376.348C337.584 373.553 341.105 370.304 344.205 366.656L328.205 353.055L312.205 339.454C311.297 340.523 310.259 341.482 309.109 342.313L321.414 359.331ZM328.205 353.055L344.205 366.657C351.683 357.861 355.425 346.729 359.849 334.616L340.123 327.412L320.397 320.207C314.893 335.278 313.667 337.735 312.206 339.453L328.205 353.055ZM340.123 327.412L359.847 334.62L372.456 300.121L352.732 292.913L333.008 285.704L320.399 320.203L340.123 327.412ZM352.732 292.913L372.456 300.12C382.008 273.978 388.404 256.637 394.712 245.016C400.856 233.697 404.34 232.723 405.753 232.411L401.218 211.906L396.682 191.402C377.551 195.634 366.106 209.676 357.799 224.98C349.656 239.983 342.081 260.872 333.007 285.705L352.732 292.913ZM401.218 211.906L405.754 232.411C407.15 232.102 410.694 231.504 420.996 239.173C431.58 247.051 444.641 260.081 464.261 279.773L479.137 264.951L494.014 250.129C475.381 231.428 459.753 215.664 446.075 205.482C432.115 195.09 415.825 187.167 396.681 191.402L401.218 211.906Z" fill="white" mask="url(#path-2-outside-1_3_2)"/>
</svg>
